{
  "accessors": [
    {
      "bufferView": 1,
      "componentType": 5126,
      "count": 540,
      "max": [
        1.0500000715255737,
        1.125,
        2.125
      ],
      "min": [
        -1.0000004768371582,
        -1.1250005960464478,
        -0.5
      ],
      "type": "VEC3"
    },
    {
      "bufferView": 1,
      "byteOffset": 6480,
      "componentType": 5126,
      "count": 540,
      "max": [
        1.0,
        1.0,
        1.0
      ],
      "min": [
        -1.0,
        -1.0,
        -1.0
      ],
      "type": "VEC3"
    },
    {
      "bufferView": 0,
      "componentType": 5125,
      "count": 924,
      "type": "SCALAR"
    },
    {
      "bufferView": 1,
      "byteOffset": 12960,
      "componentType": 5126,
      "count": 302,
      "max": [
        1.0000004768371582,
        1.0000003576278687,
        2.0
      ],
      "min": [
        -1.0000003576278687,
        -1.0000005960464478,
        -0.5
      ],
      "type": "VEC3"
    },
    {
      "bufferView": 1,
      "byteOffset": 16584,
      "componentType": 5126,
      "count": 302,
      "max": [
        1.0,
        1.0,
        6.768165690118622e-07
      ],
      "min": [
        -1.0,
        -1.0,
        -1.0
      ],
      "type": "VEC3"
    },
    {
      "bufferView": 0,
      "byteOffset": 3696,
      "componentType": 5125,
      "count": 492,
      "type": "SCALAR"
    }
  ],
  "asset": {
    "extras": {
      "author": "Jeff Harper Games (https://sketchfab.com/jeffharpergames)",
      "license": "CC-BY-4.0 (http://creativecommons.org/licenses/by/4.0/)",
      "source": "https://sketchfab.com/3d-models/farm-barn-b930b48e99934f698c52b92f4ec1e51a",
      "title": "Farm Barn"
    },
    "generator": "Sketchfab-12.66.0",
    "version": "2.0"
  },
  "bufferViews": [
    {
      "buffer": 0,
      "byteLength": 5664,
      "name": "floatBufferViews",
      "target": 34963
    },
    {
      "buffer": 0,
      "byteLength": 20208,
      "byteOffset": 5664,
      "byteStride": 12,
      "name": "floatBufferViews",
      "target": 34962
    }
  ],
  "buffers": [
    {
      "byteLength": 25872,
      "uri": "scene.bin"
    }
  ],
  "materials": [
    {
      "doubleSided": true,
      "name": "Barn_roof",
      "pbrMetallicRoughness": {
        "baseColorFactor": [
          0.8,
          0.8,
          0.8,
          1.0
        ],
        "metallicFactor": 0.0,
        "roughnessFactor": 0.6
      }
    },
    {
      "doubleSided": true,
      "name": "Barn_main",
      "pbrMetallicRoughness": {
        "baseColorFactor": [
          0.6400000000000001,
          0.002034104,
          0.0,
          1.0
        ],
        "metallicFactor": 0.0,
        "roughnessFactor": 0.6
      }
    }
  ],
  "meshes": [
    {
      "name": "Cube_Barn_roof_0",
      "primitives": [
        {
          "attributes": {
            "NORMAL": 1,
            "POSITION": 0
          },
          "indices": 2,
          "material": 0,
          "mode": 4
        }
      ]
    },
    {
      "name": "Cube_Barn_main_0",
      "primitives": [
        {
          "attributes": {
            "NORMAL": 4,
            "POSITION": 3
          },
          "indices": 5,
          "material": 1,
          "mode": 4
        }
      ]
    }
  ],
  "nodes": [
    {
      "children": [
        1
      ],
      "matrix": [
        2.220446049250313e-16,
        -2.220446049250313e-16,
        1.0,
        0.0,
        1.0,
        4.930380657631324e-32,
        -2.220446049250313e-16,
        0.0,
        0.0,
        1.0,
        2.220446049250313e-16,
        0.0,
        0.04527578130364418,
        1.0783449892860777e-17,
        -0.04856434091925621,
        1.0
      ],
      "name": "Sketchfab_model"
    },
    {
      "children": [
        2
      ],
      "matrix": [
        1.0,
        0.0,
        0.0,
        0.0,
        0.0,
        0.0,
        1.0,
        0.0,
        0.0,
        -1.0,
        0.0,
        0.0,
        0.0,
        0.0,
        0.0,
        1.0
      ],
      "name": "9f8cf1493e564b3daf5790f3c9d04ffc.fbx"
    },
    {
      "children": [
        3
      ],
      "name": "RootNode"
    },
    {
      "children": [
        4,
        5
      ],
      "matrix": [
        2.0,
        0.0,
        0.0,
        0.0,
        0.0,
        -3.2584135878366283e-07,
        -1.9999999999999736,
        0.0,
        0.0,
        1.9999999999999736,
        -3.2584135878366283e-07,
        0.0,
        0.0,
        1.0,
        0.0,
        1.0
      ],
      "name": "Cube"
    },
    {
      "mesh": 0,
      "name": "Cube_Barn_roof_0"
    },
    {
      "mesh": 1,
      "name": "Cube_Barn_main_0"
    }
  ],
  "scene": 0,
  "scenes": [
    {
      "name": "Sketchfab_Scene",
      "nodes": [
        0
      ]
    }
  ]
}
