{"asset":{"version":"2.0","generator":"VECTARY"},"nodes":[{"translation":[-9.012156992799445,1.8189894035458565e-15,-9.285500043671922],"scale":[0.09828178195212593,0.09828178195212593,0.09828178195212593],"rotation":[-0.7071067811865475,0,0,0.7071067811865476],"name":"Cylinder","mesh":0},{"translation":[4.800115629294116,1.8189894035458565e-15,-10.423786593113379],"scale":[1,1,1],"rotation":[0,-0.7071067811865475,-1.1102230246251565e-16,0.7071067811865476],"name":"9f8cf1493e564b3daf5790f3c9d04ffc.fbx","children":[2]},{"translation":[0,0,0],"scale":[1,1,1],"rotation":[0,0,0,1],"name":"RootNode","children":[3]},{"translation":[0,1,0],"scale":[2,2,2],"rotation":[-0.7071068387877038,0,0,0.7071067235853866],"name":"Cube","children":[4,5]},{"translation":[0,0,0],"scale":[1,1,1],"rotation":[0,0,0,1],"name":"Cube_Barn_roof_0","mesh":1},{"translation":[0,0,0],"scale":[1,1,1],"rotation":[0,0,0,1],"name":"Cube_Barn_main_0","mesh":2}],"materials":[{"pbrMetallicRoughness":{"baseColorFactor":[0.15415226081216518,0.1904628788224093,0.9322768502645428,1],"metallicFactor":1,"roughnessFactor":0.5},"name":"Silver Satin","emissiveFactor":[0,0,0],"extensions":{},"alphaMode":"OPAQUE","doubleSided":false},{"pbrMetallicRoughness":{"baseColorFactor":[0.8000000000000002,0.8000000000000002,0.8000000000000002,1],"metallicFactor":0,"roughnessFactor":0.6},"name":"Barn_roof","emissiveFactor":[0,0,0],"extensions":{},"alphaMode":"OPAQUE","doubleSided":true},{"pbrMetallicRoughness":{"baseColorFactor":[0.64,0.0020341039999999993,0,1],"metallicFactor":0,"roughnessFactor":0.6},"name":"Barn_main","emissiveFactor":[0,0,0],"extensions":{},"alphaMode":"OPAQUE","doubleSided":true}],"meshes":[{"primitives":[{"mode":4,"attributes":{"POSITION":1,"NORMAL":2,"TEXCOORD_0":3},"material":0,"indices":0}]},{"primitives":[{"mode":4,"attributes":{"POSITION":5,"NORMAL":6,"TEXCOORD_0":7},"material":1,"indices":4}]},{"primitives":[{"mode":4,"attributes":{"POSITION":9,"NORMAL":10,"TEXCOORD_0":11},"material":2,"indices":8}]}],"accessors":[{"bufferView":0,"byteOffset":0,"componentType":5125,"count":6528,"type":"SCALAR"},{"bufferView":1,"byteOffset":0,"componentType":5126,"count":1327,"max":[99.95000457763672,50,0.10000000149011612],"min":[-49.95000076293945,-50,0],"type":"VEC3"},{"bufferView":2,"byteOffset":0,"componentType":5126,"count":1327,"type":"VEC3"},{"bufferView":3,"byteOffset":0,"componentType":5126,"count":1327,"type":"VEC2"},{"bufferView":4,"byteOffset":0,"componentType":5125,"count":924,"type":"SCALAR"},{"bufferView":5,"byteOffset":0,"componentType":5126,"count":540,"max":[1.0500000715255737,1.125,2.125],"min":[-1.0000004768371582,-1.1250005960464478,-0.5],"type":"VEC3"},{"bufferView":6,"byteOffset":0,"componentType":5126,"count":540,"type":"VEC3"},{"bufferView":7,"byteOffset":0,"componentType":5126,"count":540,"type":"VEC2"},{"bufferView":8,"byteOffset":0,"componentType":5125,"count":492,"type":"SCALAR"},{"bufferView":9,"byteOffset":0,"componentType":5126,"count":302,"max":[1.0000004768371582,1.0000003576278687,2],"min":[-1.0000003576278687,-1.0000005960464478,-0.5],"type":"VEC3"},{"bufferView":10,"byteOffset":0,"componentType":5126,"count":302,"type":"VEC3"},{"bufferView":11,"byteOffset":0,"componentType":5126,"count":302,"type":"VEC2"}],"bufferViews":[{"buffer":0,"byteOffset":0,"byteLength":26112,"target":34963},{"buffer":0,"byteOffset":26112,"byteLength":15924,"target":34962},{"buffer":0,"byteOffset":42036,"byteLength":15924,"target":34962},{"buffer":0,"byteOffset":57960,"byteLength":10616,"target":34962},{"buffer":0,"byteOffset":68576,"byteLength":3696,"target":34963},{"buffer":0,"byteOffset":72272,"byteLength":6480,"target":34962},{"buffer":0,"byteOffset":78752,"byteLength":6480,"target":34962},{"buffer":0,"byteOffset":85232,"byteLength":4320,"target":34962},{"buffer":0,"byteOffset":89552,"byteLength":1968,"target":34963},{"buffer":0,"byteOffset":91520,"byteLength":3624,"target":34962},{"buffer":0,"byteOffset":95144,"byteLength":3624,"target":34962},{"buffer":0,"byteOffset":98768,"byteLength":2416,"target":34962}],"scene":0,"scenes":[{"nodes":[0,1],"name":"Project Name"}],"extensionsUsed":["KHR_texture_transform"],"buffers":[{"byteLength":101184,"uri":"ProjectName.bin"}]}