{"asset":{"version":"2.0","generator":"VECTARY"},"nodes":[{"translation":[2.2194997571756194,-0.021051008664522898,-3.035991024615482],"scale":[0.00110485854126811,0.00110485854126811,0.00110485854126811],"rotation":[-0.7071067811865474,0,0,0.7071067811865475],"name":"cerca","children":[1,2,3,4,5,6,7]},{"translation":[-120.66200316703635,-65.73057256980792,494.11286116216195],"scale":[2.5199615078370923,2.5199615078370923,2.5199615078370923],"rotation":[0,0,0,1],"name":"Box 1","mesh":0},{"translation":[90.42428626280434,-4431.546012508597,0],"scale":[7.559692819320395,7.559692819320395,7.559692819320395],"rotation":[0,0,0,1],"name":"Box 4","mesh":1},{"translation":[90.42428626280434,-1188.6451753280523,0],"scale":[7.559692819320395,7.559692819320395,7.559692819320395],"rotation":[0,0,0,1],"name":"Box 2","mesh":2},{"translation":[90.42428626280434,2494.7507116771003,0],"scale":[7.559692819320395,7.559692819320395,7.559692819320395],"rotation":[0,0,0,1],"name":"Box 5","mesh":3},{"translation":[90.42428626280434,4897.767595134216,0],"scale":[7.559692819320395,7.559692819320395,7.559692819320395],"rotation":[0,0,0,1],"name":"Box 6","mesh":4},{"translation":[90.42428626280434,506.88370046707587,0],"scale":[7.559692819320395,7.559692819320395,7.559692819320395],"rotation":[0,0,0,1],"name":"Box 3","mesh":5},{"translation":[90.42428626280434,-2708.9971759662412,0],"scale":[7.559692819320395,7.559692819320395,7.559692819320395],"rotation":[0,0,0,1],"name":"Box","mesh":6}],"materials":[{"pbrMetallicRoughness":{"baseColorFactor":[0.37867625092984036,0.23489525921588023,0.06772458968542432,1],"metallicFactor":0,"roughnessFactor":0.2},"name":"Aria","emissiveFactor":[0,0,0],"extensions":{},"alphaMode":"OPAQUE","doubleSided":false},{"pbrMetallicRoughness":{"baseColorFactor":[0.5479935021969718,0.33445780792388924,0.09387586652557776,1],"metallicFactor":0,"roughnessFactor":0.2},"name":"Exotic Life 3","emissiveFactor":[0,0,0],"extensions":{},"alphaMode":"OPAQUE","doubleSided":false},{"pbrMetallicRoughness":{"baseColorFactor":[0.5479935021969718,0.33445780792388924,0.09387586652557776,1],"metallicFactor":0,"roughnessFactor":0.2},"name":"Exotic Life 1","emissiveFactor":[0,0,0],"extensions":{},"alphaMode":"OPAQUE","doubleSided":false},{"pbrMetallicRoughness":{"baseColorFactor":[0.5479935021969718,0.33445780792388924,0.09387586652557776,1],"metallicFactor":0,"roughnessFactor":0.2},"name":"Exotic Life 4","emissiveFactor":[0,0,0],"extensions":{},"alphaMode":"OPAQUE","doubleSided":false},{"pbrMetallicRoughness":{"baseColorFactor":[0.5479935021969718,0.33445780792388924,0.09387586652557776,1],"metallicFactor":0,"roughnessFactor":0.2},"name":"Exotic Life 5","emissiveFactor":[0,0,0],"extensions":{},"alphaMode":"OPAQUE","doubleSided":false},{"pbrMetallicRoughness":{"baseColorFactor":[0.5479935021969718,0.33445780792388924,0.09387586652557776,1],"metallicFactor":0,"roughnessFactor":0.2},"name":"Exotic Life 2","emissiveFactor":[0,0,0],"extensions":{},"alphaMode":"OPAQUE","doubleSided":false},{"pbrMetallicRoughness":{"baseColorFactor":[0.5479935021969718,0.33445780792388924,0.09387586652557776,1],"metallicFactor":0,"roughnessFactor":0.2},"name":"Exotic Life","emissiveFactor":[0,0,0],"extensions":{},"alphaMode":"OPAQUE","doubleSided":false}],"meshes":[{"primitives":[{"mode":4,"attributes":{"POSITION":1,"NORMAL":2,"TEXCOORD_0":3},"material":0,"indices":0}]},{"primitives":[{"mode":4,"attributes":{"POSITION":5,"NORMAL":6,"TEXCOORD_0":7},"material":1,"indices":4}]},{"primitives":[{"mode":4,"attributes":{"POSITION":9,"NORMAL":10,"TEXCOORD_0":11},"material":2,"indices":8}]},{"primitives":[{"mode":4,"attributes":{"POSITION":13,"NORMAL":14,"TEXCOORD_0":15},"material":3,"indices":12}]},{"primitives":[{"mode":4,"attributes":{"POSITION":17,"NORMAL":18,"TEXCOORD_0":19},"material":4,"indices":16}]},{"primitives":[{"mode":4,"attributes":{"POSITION":21,"NORMAL":22,"TEXCOORD_0":23},"material":5,"indices":20}]},{"primitives":[{"mode":4,"attributes":{"POSITION":25,"NORMAL":26,"TEXCOORD_0":27},"material":6,"indices":24}]}],"accessors":[{"bufferView":0,"byteOffset":0,"componentType":5125,"count":36,"type":"SCALAR"},{"bufferView":1,"byteOffset":0,"componentType":5126,"count":24,"max":[16.5,2087,100],"min":[-16.5,-2087,0],"type":"VEC3"},{"bufferView":2,"byteOffset":0,"componentType":5126,"count":24,"type":"VEC3"},{"bufferView":3,"byteOffset":0,"componentType":5126,"count":24,"type":"VEC2"},{"bufferView":4,"byteOffset":0,"componentType":5125,"count":36,"type":"SCALAR"},{"bufferView":5,"byteOffset":0,"componentType":5126,"count":24,"max":[9.5,56.5,176],"min":[-9.5,-56.5,0],"type":"VEC3"},{"bufferView":6,"byteOffset":0,"componentType":5126,"count":24,"type":"VEC3"},{"bufferView":7,"byteOffset":0,"componentType":5126,"count":24,"type":"VEC2"},{"bufferView":8,"byteOffset":0,"componentType":5125,"count":36,"type":"SCALAR"},{"bufferView":9,"byteOffset":0,"componentType":5126,"count":24,"max":[9.5,56.5,176],"min":[-9.5,-56.5,0],"type":"VEC3"},{"bufferView":10,"byteOffset":0,"componentType":5126,"count":24,"type":"VEC3"},{"bufferView":11,"byteOffset":0,"componentType":5126,"count":24,"type":"VEC2"},{"bufferView":12,"byteOffset":0,"componentType":5125,"count":36,"type":"SCALAR"},{"bufferView":13,"byteOffset":0,"componentType":5126,"count":24,"max":[9.5,56.5,176],"min":[-9.5,-56.5,0],"type":"VEC3"},{"bufferView":14,"byteOffset":0,"componentType":5126,"count":24,"type":"VEC3"},{"bufferView":15,"byteOffset":0,"componentType":5126,"count":24,"type":"VEC2"},{"bufferView":16,"byteOffset":0,"componentType":5125,"count":36,"type":"SCALAR"},{"bufferView":17,"byteOffset":0,"componentType":5126,"count":24,"max":[9.5,56.5,176],"min":[-9.5,-56.5,0],"type":"VEC3"},{"bufferView":18,"byteOffset":0,"componentType":5126,"count":24,"type":"VEC3"},{"bufferView":19,"byteOffset":0,"componentType":5126,"count":24,"type":"VEC2"},{"bufferView":20,"byteOffset":0,"componentType":5125,"count":36,"type":"SCALAR"},{"bufferView":21,"byteOffset":0,"componentType":5126,"count":24,"max":[9.5,56.5,176],"min":[-9.5,-56.5,0],"type":"VEC3"},{"bufferView":22,"byteOffset":0,"componentType":5126,"count":24,"type":"VEC3"},{"bufferView":23,"byteOffset":0,"componentType":5126,"count":24,"type":"VEC2"},{"bufferView":24,"byteOffset":0,"componentType":5125,"count":36,"type":"SCALAR"},{"bufferView":25,"byteOffset":0,"componentType":5126,"count":24,"max":[9.5,56.5,176],"min":[-9.5,-56.5,0],"type":"VEC3"},{"bufferView":26,"byteOffset":0,"componentType":5126,"count":24,"type":"VEC3"},{"bufferView":27,"byteOffset":0,"componentType":5126,"count":24,"type":"VEC2"}],"bufferViews":[{"buffer":0,"byteOffset":0,"byteLength":144,"target":34963},{"buffer":0,"byteOffset":144,"byteLength":288,"target":34962},{"buffer":0,"byteOffset":432,"byteLength":288,"target":34962},{"buffer":0,"byteOffset":720,"byteLength":192,"target":34962},{"buffer":0,"byteOffset":912,"byteLength":144,"target":34963},{"buffer":0,"byteOffset":1056,"byteLength":288,"target":34962},{"buffer":0,"byteOffset":1344,"byteLength":288,"target":34962},{"buffer":0,"byteOffset":1632,"byteLength":192,"target":34962},{"buffer":0,"byteOffset":1824,"byteLength":144,"target":34963},{"buffer":0,"byteOffset":1968,"byteLength":288,"target":34962},{"buffer":0,"byteOffset":2256,"byteLength":288,"target":34962},{"buffer":0,"byteOffset":2544,"byteLength":192,"target":34962},{"buffer":0,"byteOffset":2736,"byteLength":144,"target":34963},{"buffer":0,"byteOffset":2880,"byteLength":288,"target":34962},{"buffer":0,"byteOffset":3168,"byteLength":288,"target":34962},{"buffer":0,"byteOffset":3456,"byteLength":192,"target":34962},{"buffer":0,"byteOffset":3648,"byteLength":144,"target":34963},{"buffer":0,"byteOffset":3792,"byteLength":288,"target":34962},{"buffer":0,"byteOffset":4080,"byteLength":288,"target":34962},{"buffer":0,"byteOffset":4368,"byteLength":192,"target":34962},{"buffer":0,"byteOffset":4560,"byteLength":144,"target":34963},{"buffer":0,"byteOffset":4704,"byteLength":288,"target":34962},{"buffer":0,"byteOffset":4992,"byteLength":288,"target":34962},{"buffer":0,"byteOffset":5280,"byteLength":192,"target":34962},{"buffer":0,"byteOffset":5472,"byteLength":144,"target":34963},{"buffer":0,"byteOffset":5616,"byteLength":288,"target":34962},{"buffer":0,"byteOffset":5904,"byteLength":288,"target":34962},{"buffer":0,"byteOffset":6192,"byteLength":192,"target":34962}],"scene":0,"scenes":[{"nodes":[0],"name":"Project Name"}],"extensionsUsed":["KHR_texture_transform"],"buffers":[{"byteLength":6384,"uri":"ProjectName.bin"}]}