{"asset":{"version":"2.0","generator":"VECTARY"},"nodes":[{"translation":[0,0,0],"scale":[0.5056374073028564,0.5056374073028564,0.5056374073028564],"rotation":[-0.7071067811865475,0,0,0.7071067811865476],"name":"Sketchfab_model","children":[1]},{"translation":[0,0,0],"scale":[1,1,1],"rotation":[0.7071067811865475,0,0,0.7071067811865476],"name":"c03cce1450874a9b8d3100814bff55e2.fbx","children":[2]},{"translation":[0,0,0],"scale":[1,1,1],"rotation":[0,0,0,1],"name":"Object_2","children":[3]},{"translation":[0,0,0],"scale":[1,1,1],"rotation":[0,0,0,1],"name":"RootNode","children":[4]},{"translation":[0,0,0],"scale":[0.10000000149011612,0.1000000014901161,0.1000000014901161],"rotation":[8.146034957690092e-8,0,0,0.9999999999999967],"name":"Armature","children":[5]},{"translation":[0,0,0],"scale":[1,1,1],"rotation":[0,0,0,1],"name":"Object_5","children":[6,7,8,9,10,11,12,13]},{"translation":[0,0,0],"scale":[1,1,1],"rotation":[0,0,0,1],"name":"Duck_Material #101_0","mesh":0},{"translation":[0,0,0],"scale":[1,1,1],"rotation":[0,0,0,1],"name":"Duck_Material #75_0","mesh":1},{"translation":[0,0,0],"scale":[1,1,1],"rotation":[0,0,0,1],"name":"Duck_Material #50_0","mesh":2},{"translation":[0,0,0],"scale":[1,1,1],"rotation":[0,0,0,1],"name":"Duck_Material #25_0","mesh":3},{"translation":[0,0,0],"scale":[1,1,1],"rotation":[0,0,0,1],"name":"Duck_Material #37_0","mesh":4},{"translation":[0,0,0],"scale":[1,1,1],"rotation":[0,0,0,1],"name":"Duck_Standardmaterial_0","mesh":5},{"translation":[0,0,0],"scale":[1,1,1],"rotation":[0,0,0,1],"name":"Duck_Material #115_0","mesh":6},{"translation":[0,0,0],"scale":[1,1,1],"rotation":[0,0,0,1],"name":"Duck_Material #88_0","mesh":7}],"materials":[{"pbrMetallicRoughness":{"baseColorFactor":[0.8751375823652049,0.9322768502645428,0.907547199521614,1],"metallicFactor":0,"roughnessFactor":0.8934999708726591},"name":"Material_101","emissiveFactor":[0,0,0],"extensions":{},"alphaMode":"OPAQUE","doubleSided":true},{"pbrMetallicRoughness":{"baseColorFactor":[0.8751375823652049,0.9322768502645428,0.907547199521614,1],"metallicFactor":0,"roughnessFactor":0.8934999708726591},"name":"Material_75","emissiveFactor":[0,0,0],"extensions":{},"alphaMode":"OPAQUE","doubleSided":true},{"pbrMetallicRoughness":{"baseColorFactor":[0.9960779999999999,0.141176,0.05098039999999999,1],"metallicFactor":0,"roughnessFactor":0.8934999708726591},"name":"Material_50","emissiveFactor":[0,0,0],"extensions":{},"alphaMode":"OPAQUE","doubleSided":true},{"pbrMetallicRoughness":{"baseColorFactor":[0.8751375823652049,0.9322768502645428,0.907547199521614,1],"metallicFactor":0,"roughnessFactor":0.8934999708726591},"name":"Material_25","emissiveFactor":[0,0,0],"extensions":{},"alphaMode":"OPAQUE","doubleSided":true},{"pbrMetallicRoughness":{"baseColorFactor":[0.796079,0.35294100000000006,0,1],"metallicFactor":0,"roughnessFactor":0.8934999708726591},"name":"Material_37","emissiveFactor":[0,0,0],"extensions":{},"alphaMode":"OPAQUE","doubleSided":true},{"pbrMetallicRoughness":{"baseColorFactor":[0.588,0.588,0.588,1],"metallicFactor":0,"roughnessFactor":0.8934999708726591},"name":"Standardmaterial","emissiveFactor":[0,0,0],"extensions":{},"alphaMode":"OPAQUE","doubleSided":true},{"pbrMetallicRoughness":{"baseColorFactor":[0,0,0,1],"metallicFactor":0,"roughnessFactor":0.8934999708726591},"name":"Material_115","emissiveFactor":[0,0,0],"extensions":{},"alphaMode":"OPAQUE","doubleSided":true},{"pbrMetallicRoughness":{"baseColorFactor":[0.968628,0.968628,0.968628,1],"metallicFactor":0,"roughnessFactor":0.8934999708726591},"name":"Material_88","emissiveFactor":[0,0,0],"extensions":{},"alphaMode":"OPAQUE","doubleSided":true}],"meshes":[{"primitives":[{"mode":4,"attributes":{"POSITION":1,"NORMAL":2,"TEXCOORD_0":3},"material":0,"indices":0}]},{"primitives":[{"mode":4,"attributes":{"POSITION":4,"NORMAL":5,"TEXCOORD_0":6},"material":1}]},{"primitives":[{"mode":4,"attributes":{"POSITION":7,"NORMAL":8,"TEXCOORD_0":9},"material":2}]},{"primitives":[{"mode":4,"attributes":{"POSITION":10,"NORMAL":11,"TEXCOORD_0":12},"material":3}]},{"primitives":[{"mode":4,"attributes":{"POSITION":14,"NORMAL":15,"TEXCOORD_0":16},"material":4,"indices":13}]},{"primitives":[{"mode":4,"attributes":{"POSITION":17,"NORMAL":18,"TEXCOORD_0":19},"material":5}]},{"primitives":[{"mode":4,"attributes":{"POSITION":20,"NORMAL":21,"TEXCOORD_0":22},"material":6}]},{"primitives":[{"mode":4,"attributes":{"POSITION":23,"NORMAL":24,"TEXCOORD_0":25},"material":7}]}],"accessors":[{"bufferView":0,"byteOffset":0,"componentType":5125,"count":618,"type":"SCALAR"},{"bufferView":1,"byteOffset":0,"componentType":5126,"count":615,"max":[6.178201198577881,28.003936767578125,5.003636837005615],"min":[-16.067590713500977,6.375293731689453,-22.174724578857422],"type":"VEC3"},{"bufferView":2,"byteOffset":0,"componentType":5126,"count":615,"type":"VEC3"},{"bufferView":3,"byteOffset":0,"componentType":5126,"count":615,"type":"VEC2"},{"bufferView":4,"byteOffset":0,"componentType":5126,"count":114,"max":[3.2005178928375244,27.75467872619629,9.299539566040039],"min":[-13.089910507202148,7.533449649810791,2.5262746810913086],"type":"VEC3"},{"bufferView":5,"byteOffset":0,"componentType":5126,"count":114,"type":"VEC3"},{"bufferView":6,"byteOffset":0,"componentType":5126,"count":114,"type":"VEC2"},{"bufferView":7,"byteOffset":0,"componentType":5126,"count":228,"max":[4.635202884674072,8.170085906982422,5.607056140899658],"min":[-14.524595260620117,-0.07920551300048828,-4.015371799468994],"type":"VEC3"},{"bufferView":8,"byteOffset":0,"componentType":5126,"count":228,"type":"VEC3"},{"bufferView":9,"byteOffset":0,"componentType":5126,"count":228,"type":"VEC2"},{"bufferView":10,"byteOffset":0,"componentType":5126,"count":285,"max":[-1.792684555053711,44.21037673950195,7.351224422454834],"min":[-8.096707344055176,28.688650131225586,0.7732343673706055],"type":"VEC3"},{"bufferView":11,"byteOffset":0,"componentType":5126,"count":285,"type":"VEC3"},{"bufferView":12,"byteOffset":0,"componentType":5126,"count":285,"type":"VEC2"},{"bufferView":13,"byteOffset":0,"componentType":5125,"count":78,"type":"SCALAR"},{"bufferView":14,"byteOffset":0,"componentType":5126,"count":74,"max":[-1.8125,39.99596405029297,11.912379264831543],"min":[-8.076892852783203,37.21314239501953,6.817552089691162],"type":"VEC3"},{"bufferView":15,"byteOffset":0,"componentType":5126,"count":74,"type":"VEC3"},{"bufferView":16,"byteOffset":0,"componentType":5126,"count":74,"type":"VEC2"},{"bufferView":17,"byteOffset":0,"componentType":5126,"count":30,"max":[5.129946231842041,26.491535186767578,4.583333969116211],"min":[-15.019338607788086,9.93281364440918,1.171404480934143],"type":"VEC3"},{"bufferView":18,"byteOffset":0,"componentType":5126,"count":30,"type":"VEC3"},{"bufferView":19,"byteOffset":0,"componentType":5126,"count":30,"type":"VEC2"},{"bufferView":20,"byteOffset":0,"componentType":5126,"count":12,"max":[-1.921606183052063,42.0383415222168,4.636908531188965],"min":[-7.967785835266113,41.173851013183594,3.6767523288726807],"type":"VEC3"},{"bufferView":21,"byteOffset":0,"componentType":5126,"count":12,"type":"VEC3"},{"bufferView":22,"byteOffset":0,"componentType":5126,"count":12,"type":"VEC2"},{"bufferView":23,"byteOffset":0,"componentType":5126,"count":51,"max":[-1.792684555053711,29.028770446777344,6.972035884857178],"min":[-8.096707344055176,27.73988914489746,1.2222840785980225],"type":"VEC3"},{"bufferView":24,"byteOffset":0,"componentType":5126,"count":51,"type":"VEC3"},{"bufferView":25,"byteOffset":0,"componentType":5126,"count":51,"type":"VEC2"}],"bufferViews":[{"buffer":0,"byteOffset":0,"byteLength":2472,"target":34963},{"buffer":0,"byteOffset":2472,"byteLength":7380,"target":34962},{"buffer":0,"byteOffset":9852,"byteLength":7380,"target":34962},{"buffer":0,"byteOffset":17232,"byteLength":4920,"target":34962},{"buffer":0,"byteOffset":22152,"byteLength":1368,"target":34962},{"buffer":0,"byteOffset":23520,"byteLength":1368,"target":34962},{"buffer":0,"byteOffset":24888,"byteLength":912,"target":34962},{"buffer":0,"byteOffset":25800,"byteLength":2736,"target":34962},{"buffer":0,"byteOffset":28536,"byteLength":2736,"target":34962},{"buffer":0,"byteOffset":31272,"byteLength":1824,"target":34962},{"buffer":0,"byteOffset":33096,"byteLength":3420,"target":34962},{"buffer":0,"byteOffset":36516,"byteLength":3420,"target":34962},{"buffer":0,"byteOffset":39936,"byteLength":2280,"target":34962},{"buffer":0,"byteOffset":42216,"byteLength":312,"target":34963},{"buffer":0,"byteOffset":42528,"byteLength":888,"target":34962},{"buffer":0,"byteOffset":43416,"byteLength":888,"target":34962},{"buffer":0,"byteOffset":44304,"byteLength":592,"target":34962},{"buffer":0,"byteOffset":44896,"byteLength":360,"target":34962},{"buffer":0,"byteOffset":45256,"byteLength":360,"target":34962},{"buffer":0,"byteOffset":45616,"byteLength":240,"target":34962},{"buffer":0,"byteOffset":45856,"byteLength":144,"target":34962},{"buffer":0,"byteOffset":46000,"byteLength":144,"target":34962},{"buffer":0,"byteOffset":46144,"byteLength":96,"target":34962},{"buffer":0,"byteOffset":46240,"byteLength":612,"target":34962},{"buffer":0,"byteOffset":46852,"byteLength":612,"target":34962},{"buffer":0,"byteOffset":47464,"byteLength":408,"target":34962}],"scene":0,"scenes":[{"nodes":[0],"name":"Project Name"}],"extensionsUsed":["KHR_texture_transform"],"buffers":[{"byteLength":47872,"uri":"ProjectName.bin"}]}